<mxfile host="app.diagrams.net" modified="2024-02-19T09:04:35.242Z" agent="Mozilla/5.0 (Windows NT 10.0; Win64; x64) AppleWebKit/537.36 (KHTML, like Gecko) Chrome/121.0.0.0 Safari/537.36 Edg/121.0.0.0" etag="1XzSJlVpJQ3OppECP1Mq" version="23.1.2" type="github" pages="2">
  <diagram name="Page-1" id="TQ8AvZUODh42JMM2qxGe">
    <mxGraphModel dx="1252" dy="667" grid="1" gridSize="10" guides="1" tooltips="1" connect="1" arrows="1" fold="1" page="1" pageScale="1" pageWidth="827" pageHeight="1169" math="0" shadow="0">
      <root>
        <mxCell id="0" />
        <mxCell id="1" parent="0" />
        <mxCell id="nOrF6GzVShBBA4vg9aRs-1" value="" style="sketch=0;aspect=fixed;pointerEvents=1;shadow=0;dashed=0;html=1;strokeColor=none;labelPosition=center;verticalLabelPosition=bottom;verticalAlign=top;align=center;fillColor=#00188D;shape=mxgraph.azure.laptop" vertex="1" parent="1">
          <mxGeometry x="92" y="120" width="643.33" height="386" as="geometry" />
        </mxCell>
        <mxCell id="nOrF6GzVShBBA4vg9aRs-2" value="Database" style="strokeWidth=2;html=1;shape=mxgraph.flowchart.database;whiteSpace=wrap;" vertex="1" parent="1">
          <mxGeometry x="354" y="310" width="120" height="90" as="geometry" />
        </mxCell>
        <mxCell id="nOrF6GzVShBBA4vg9aRs-3" value="Capture" style="rounded=0;whiteSpace=wrap;html=1;fillColor=#dae8fc;strokeColor=#6c8ebf;" vertex="1" parent="1">
          <mxGeometry x="200" y="170" width="110" height="50" as="geometry" />
        </mxCell>
        <mxCell id="nOrF6GzVShBBA4vg9aRs-4" value="Explore" style="rounded=0;whiteSpace=wrap;html=1;fillColor=#d5e8d4;strokeColor=#82b366;" vertex="1" parent="1">
          <mxGeometry x="359" y="170" width="110" height="50" as="geometry" />
        </mxCell>
        <mxCell id="nOrF6GzVShBBA4vg9aRs-5" value="Compensate" style="rounded=0;whiteSpace=wrap;html=1;fillColor=#f8cecc;strokeColor=#b85450;" vertex="1" parent="1">
          <mxGeometry x="520" y="170" width="110" height="50" as="geometry" />
        </mxCell>
        <mxCell id="nOrF6GzVShBBA4vg9aRs-6" style="edgeStyle=orthogonalEdgeStyle;rounded=0;orthogonalLoop=1;jettySize=auto;html=1;entryX=0.5;entryY=0;entryDx=0;entryDy=0;entryPerimeter=0;" edge="1" parent="1" source="nOrF6GzVShBBA4vg9aRs-3" target="nOrF6GzVShBBA4vg9aRs-2">
          <mxGeometry relative="1" as="geometry">
            <Array as="points">
              <mxPoint x="255" y="250" />
              <mxPoint x="414" y="250" />
            </Array>
          </mxGeometry>
        </mxCell>
        <mxCell id="nOrF6GzVShBBA4vg9aRs-7" style="edgeStyle=orthogonalEdgeStyle;rounded=0;orthogonalLoop=1;jettySize=auto;html=1;entryX=0.5;entryY=0;entryDx=0;entryDy=0;entryPerimeter=0;" edge="1" parent="1" source="nOrF6GzVShBBA4vg9aRs-4" target="nOrF6GzVShBBA4vg9aRs-2">
          <mxGeometry relative="1" as="geometry" />
        </mxCell>
        <mxCell id="nOrF6GzVShBBA4vg9aRs-8" style="edgeStyle=orthogonalEdgeStyle;rounded=0;orthogonalLoop=1;jettySize=auto;html=1;entryX=0.5;entryY=0;entryDx=0;entryDy=0;entryPerimeter=0;" edge="1" parent="1" source="nOrF6GzVShBBA4vg9aRs-5" target="nOrF6GzVShBBA4vg9aRs-2">
          <mxGeometry relative="1" as="geometry">
            <Array as="points">
              <mxPoint x="575" y="250" />
              <mxPoint x="414" y="250" />
            </Array>
          </mxGeometry>
        </mxCell>
      </root>
    </mxGraphModel>
  </diagram>
  <diagram name="Sync Service And API" id="FDBLvxRx5O7XGS31qbz-">
    <mxGraphModel dx="1043" dy="556" grid="1" gridSize="10" guides="1" tooltips="1" connect="1" arrows="1" fold="1" page="1" pageScale="1" pageWidth="827" pageHeight="1169" math="0" shadow="0">
      <root>
        <mxCell id="HM1Bw1JIb1fEo4GCMf0U-0" />
        <mxCell id="HM1Bw1JIb1fEo4GCMf0U-1" parent="HM1Bw1JIb1fEo4GCMf0U-0" />
        <mxCell id="H8ePS8E98W88SbslrADg-28" value="" style="shape=mxgraph.signs.tech.computer;html=1;pointerEvents=1;fillColor=#000000;strokeColor=none;verticalLabelPosition=bottom;verticalAlign=top;align=center;" vertex="1" parent="HM1Bw1JIb1fEo4GCMf0U-1">
          <mxGeometry x="500" y="274" width="250" height="228.14" as="geometry" />
        </mxCell>
        <mxCell id="H8ePS8E98W88SbslrADg-32" value="" style="group" vertex="1" connectable="0" parent="HM1Bw1JIb1fEo4GCMf0U-1">
          <mxGeometry x="80" y="320" width="240" height="144.00074611785556" as="geometry" />
        </mxCell>
        <mxCell id="H8ePS8E98W88SbslrADg-0" value="" style="sketch=0;aspect=fixed;pointerEvents=1;shadow=0;dashed=0;html=1;strokeColor=none;labelPosition=center;verticalLabelPosition=bottom;verticalAlign=top;align=center;fillColor=#00188D;shape=mxgraph.azure.laptop" vertex="1" parent="H8ePS8E98W88SbslrADg-32">
          <mxGeometry width="240" height="144.00074611785553" as="geometry" />
        </mxCell>
        <mxCell id="H8ePS8E98W88SbslrADg-1" value="Database" style="strokeWidth=2;html=1;shape=mxgraph.flowchart.database;whiteSpace=wrap;fontSize=9;" vertex="1" parent="H8ePS8E98W88SbslrADg-32">
          <mxGeometry x="93.30472680313648" y="85.59663803987218" width="48.35953676101156" height="22.525431063124262" as="geometry" />
        </mxCell>
        <mxCell id="H8ePS8E98W88SbslrADg-31" style="edgeStyle=orthogonalEdgeStyle;rounded=0;orthogonalLoop=1;jettySize=auto;html=1;" edge="1" parent="H8ePS8E98W88SbslrADg-32" source="H8ePS8E98W88SbslrADg-29" target="H8ePS8E98W88SbslrADg-1">
          <mxGeometry relative="1" as="geometry" />
        </mxCell>
        <mxCell id="H8ePS8E98W88SbslrADg-29" value="" style="outlineConnect=0;dashed=0;verticalLabelPosition=bottom;verticalAlign=top;align=center;html=1;shape=mxgraph.aws3.worker;fillColor=#D9A741;gradientColor=none;" vertex="1" parent="H8ePS8E98W88SbslrADg-32">
          <mxGeometry x="94.30000000000001" y="20" width="45.7" height="40" as="geometry" />
        </mxCell>
        <mxCell id="H8ePS8E98W88SbslrADg-55" value="Sync Service" style="text;html=1;strokeColor=none;fillColor=none;align=center;verticalAlign=middle;whiteSpace=wrap;rounded=0;" vertex="1" parent="H8ePS8E98W88SbslrADg-32">
          <mxGeometry x="33.3" y="25" width="60" height="30" as="geometry" />
        </mxCell>
        <mxCell id="H8ePS8E98W88SbslrADg-33" value="" style="group" vertex="1" connectable="0" parent="HM1Bw1JIb1fEo4GCMf0U-1">
          <mxGeometry x="70" y="150" width="240" height="144.00074611785556" as="geometry" />
        </mxCell>
        <mxCell id="H8ePS8E98W88SbslrADg-34" value="" style="sketch=0;aspect=fixed;pointerEvents=1;shadow=0;dashed=0;html=1;strokeColor=none;labelPosition=center;verticalLabelPosition=bottom;verticalAlign=top;align=center;fillColor=#00188D;shape=mxgraph.azure.laptop" vertex="1" parent="H8ePS8E98W88SbslrADg-33">
          <mxGeometry width="240" height="144.00074611785553" as="geometry" />
        </mxCell>
        <mxCell id="H8ePS8E98W88SbslrADg-35" value="Database" style="strokeWidth=2;html=1;shape=mxgraph.flowchart.database;whiteSpace=wrap;fontSize=9;" vertex="1" parent="H8ePS8E98W88SbslrADg-33">
          <mxGeometry x="93.30472680313648" y="85.59663803987218" width="48.35953676101156" height="22.525431063124262" as="geometry" />
        </mxCell>
        <mxCell id="H8ePS8E98W88SbslrADg-36" style="edgeStyle=orthogonalEdgeStyle;rounded=0;orthogonalLoop=1;jettySize=auto;html=1;" edge="1" parent="H8ePS8E98W88SbslrADg-33" source="H8ePS8E98W88SbslrADg-37" target="H8ePS8E98W88SbslrADg-35">
          <mxGeometry relative="1" as="geometry" />
        </mxCell>
        <mxCell id="H8ePS8E98W88SbslrADg-37" value="" style="outlineConnect=0;dashed=0;verticalLabelPosition=bottom;verticalAlign=top;align=center;html=1;shape=mxgraph.aws3.worker;fillColor=#D9A741;gradientColor=none;" vertex="1" parent="H8ePS8E98W88SbslrADg-33">
          <mxGeometry x="94.30000000000001" y="20" width="45.7" height="40" as="geometry" />
        </mxCell>
        <mxCell id="H8ePS8E98W88SbslrADg-54" value="Sync Service" style="text;html=1;strokeColor=none;fillColor=none;align=center;verticalAlign=middle;whiteSpace=wrap;rounded=0;" vertex="1" parent="H8ePS8E98W88SbslrADg-33">
          <mxGeometry x="34" y="30" width="60" height="30" as="geometry" />
        </mxCell>
        <mxCell id="H8ePS8E98W88SbslrADg-38" value="" style="group" vertex="1" connectable="0" parent="HM1Bw1JIb1fEo4GCMf0U-1">
          <mxGeometry x="80" y="500" width="240" height="144.00074611785556" as="geometry" />
        </mxCell>
        <mxCell id="H8ePS8E98W88SbslrADg-39" value="" style="sketch=0;aspect=fixed;pointerEvents=1;shadow=0;dashed=0;html=1;strokeColor=none;labelPosition=center;verticalLabelPosition=bottom;verticalAlign=top;align=center;fillColor=#00188D;shape=mxgraph.azure.laptop" vertex="1" parent="H8ePS8E98W88SbslrADg-38">
          <mxGeometry width="240" height="144.00074611785553" as="geometry" />
        </mxCell>
        <mxCell id="H8ePS8E98W88SbslrADg-40" value="Database" style="strokeWidth=2;html=1;shape=mxgraph.flowchart.database;whiteSpace=wrap;fontSize=9;" vertex="1" parent="H8ePS8E98W88SbslrADg-38">
          <mxGeometry x="93.30472680313648" y="85.59663803987218" width="48.35953676101156" height="22.525431063124262" as="geometry" />
        </mxCell>
        <mxCell id="H8ePS8E98W88SbslrADg-41" style="edgeStyle=orthogonalEdgeStyle;rounded=0;orthogonalLoop=1;jettySize=auto;html=1;" edge="1" parent="H8ePS8E98W88SbslrADg-38" source="H8ePS8E98W88SbslrADg-42" target="H8ePS8E98W88SbslrADg-40">
          <mxGeometry relative="1" as="geometry" />
        </mxCell>
        <mxCell id="H8ePS8E98W88SbslrADg-42" value="" style="outlineConnect=0;dashed=0;verticalLabelPosition=bottom;verticalAlign=top;align=center;html=1;shape=mxgraph.aws3.worker;fillColor=#D9A741;gradientColor=none;" vertex="1" parent="H8ePS8E98W88SbslrADg-38">
          <mxGeometry x="94.30000000000001" y="20" width="45.7" height="40" as="geometry" />
        </mxCell>
        <mxCell id="H8ePS8E98W88SbslrADg-56" value="Sync Service" style="text;html=1;strokeColor=none;fillColor=none;align=center;verticalAlign=middle;whiteSpace=wrap;rounded=0;" vertex="1" parent="H8ePS8E98W88SbslrADg-38">
          <mxGeometry x="33.3" y="20" width="60" height="30" as="geometry" />
        </mxCell>
        <mxCell id="H8ePS8E98W88SbslrADg-47" value="Database" style="strokeWidth=2;html=1;shape=mxgraph.flowchart.database;whiteSpace=wrap;fontSize=9;" vertex="1" parent="HM1Bw1JIb1fEo4GCMf0U-1">
          <mxGeometry x="670" y="344" width="48.36" height="40" as="geometry" />
        </mxCell>
        <mxCell id="H8ePS8E98W88SbslrADg-49" style="edgeStyle=orthogonalEdgeStyle;rounded=0;orthogonalLoop=1;jettySize=auto;html=1;" edge="1" parent="HM1Bw1JIb1fEo4GCMf0U-1" source="H8ePS8E98W88SbslrADg-48" target="H8ePS8E98W88SbslrADg-47">
          <mxGeometry relative="1" as="geometry" />
        </mxCell>
        <mxCell id="H8ePS8E98W88SbslrADg-48" value="" style="outlineConnect=0;dashed=0;verticalLabelPosition=bottom;verticalAlign=top;align=center;html=1;shape=mxgraph.aws3.api_gateway;fillColor=#D9A741;gradientColor=none;" vertex="1" parent="HM1Bw1JIb1fEo4GCMf0U-1">
          <mxGeometry x="540" y="314" width="76.5" height="93" as="geometry" />
        </mxCell>
        <mxCell id="H8ePS8E98W88SbslrADg-50" style="edgeStyle=orthogonalEdgeStyle;rounded=0;orthogonalLoop=1;jettySize=auto;html=1;" edge="1" parent="HM1Bw1JIb1fEo4GCMf0U-1" source="H8ePS8E98W88SbslrADg-37" target="H8ePS8E98W88SbslrADg-48">
          <mxGeometry relative="1" as="geometry">
            <Array as="points">
              <mxPoint x="380" y="190" />
              <mxPoint x="380" y="360" />
            </Array>
          </mxGeometry>
        </mxCell>
        <mxCell id="H8ePS8E98W88SbslrADg-51" style="edgeStyle=orthogonalEdgeStyle;rounded=0;orthogonalLoop=1;jettySize=auto;html=1;" edge="1" parent="HM1Bw1JIb1fEo4GCMf0U-1" source="H8ePS8E98W88SbslrADg-29" target="H8ePS8E98W88SbslrADg-48">
          <mxGeometry relative="1" as="geometry" />
        </mxCell>
        <mxCell id="H8ePS8E98W88SbslrADg-52" style="edgeStyle=orthogonalEdgeStyle;rounded=0;orthogonalLoop=1;jettySize=auto;html=1;" edge="1" parent="HM1Bw1JIb1fEo4GCMf0U-1" source="H8ePS8E98W88SbslrADg-42" target="H8ePS8E98W88SbslrADg-48">
          <mxGeometry relative="1" as="geometry">
            <Array as="points">
              <mxPoint x="380" y="540" />
              <mxPoint x="380" y="360" />
            </Array>
          </mxGeometry>
        </mxCell>
        <mxCell id="H8ePS8E98W88SbslrADg-53" value="API" style="text;html=1;strokeColor=none;fillColor=none;align=center;verticalAlign=middle;whiteSpace=wrap;rounded=0;" vertex="1" parent="HM1Bw1JIb1fEo4GCMf0U-1">
          <mxGeometry x="548" y="290" width="60" height="30" as="geometry" />
        </mxCell>
      </root>
    </mxGraphModel>
  </diagram>
</mxfile>
